<svg width="426" height="446" viewBox="0 0 426 446" id="parquet" xmlns="http://www.w3.org/2000/svg" xmlns:xlink="http://www.w3.org/1999/xlink"><defs><path id="hexagon" fill="#ffffff" stroke="none" stroke-width="1" stroke-alignment="outer" d="M 2.7554552980815448e-15 -45 L 38.97114317029974 -22.499999999999996 38.97114317029974 22.499999999999996 2.7554552980815448e-15 45 -38.97114317029974 22.499999999999996 -38.97114317029974 -22.500000000000004 z"></path></defs><rect width="100%" height="100%" fill="#c7c7c7"></rect><g transform="translate(0,0) rotate(0)"><g id="horizontalGroup"><use x="0" y="0" xlink:href="#hexagon" fill="black" stroke="none" d="M 2.7554552980815448e-15 -45 L 38.97114317029974 -22.499999999999996 38.97114317029974 22.499999999999996 2.7554552980815448e-15 45 -38.97114317029974 22.499999999999996 -38.97114317029974 -22.500000000000004 z"></use><use x="84.94228634059948" y="0" xlink:href="#hexagon" fill="black" stroke="none" d="M 84.94228634059948 -45 L 123.91342951089922 -22.499999999999996 123.91342951089922 22.499999999999996 84.94228634059948 45 45.97114317029974 22.499999999999996 45.97114317029974 -22.500000000000004 z"></use><use x="169.88457268119896" y="0" xlink:href="#hexagon" fill="black" stroke="none" d="M 169.88457268119896 -45 L 208.8557158514987 -22.499999999999996 208.8557158514987 22.499999999999996 169.88457268119896 45 130.91342951089922 22.499999999999996 130.91342951089922 -22.500000000000004 z"></use><use x="254.82685902179844" y="0" xlink:href="#hexagon" fill="black" stroke="none" d="M 254.82685902179844 -45 L 293.7980021920982 -22.499999999999996 293.7980021920982 22.499999999999996 254.82685902179844 45 215.8557158514987 22.499999999999996 215.8557158514987 -22.500000000000004 z"></use><use x="339.7691453623979" y="0" xlink:href="#hexagon" fill="black" stroke="none" d="M 339.7691453623979 -45 L 378.74028853269766 -22.499999999999996 378.74028853269766 22.499999999999996 339.7691453623979 45 300.7980021920982 22.499999999999996 300.7980021920982 -22.500000000000004 z"></use><use x="424.7114317029974" y="0" xlink:href="#hexagon" fill="black" stroke="none" d="M 424.7114317029974 -45 L 463.68257487329714 -22.499999999999996 463.68257487329714 22.499999999999996 424.7114317029974 45 385.74028853269766 22.499999999999996 385.74028853269766 -22.500000000000004 z"></use></g><use x="42.47114317029974" y="74.5" xlink:href="#horizontalGroup"></use><use x="0" y="149" xlink:href="#horizontalGroup"></use><use x="42.47114317029974" y="223.5" xlink:href="#horizontalGroup"></use><use x="0" y="298" xlink:href="#horizontalGroup"></use><use x="42.47114317029974" y="372.5" xlink:href="#horizontalGroup"></use><use x="0" y="447" xlink:href="#horizontalGroup"></use></g></svg>